<?xml version="1.0" encoding="utf-8"?>
<!-- Generator: Adobe Illustrator 17.0.0, SVG Export Plug-In . SVG Version: 6.00 Build 0)  -->
<!DOCTYPE svg PUBLIC "-//W3C//DTD SVG 1.1//EN" "http://www.w3.org/Graphics/SVG/1.1/DTD/svg11.dtd">
<svg version="1.1" id="Layer_1" xmlns="http://www.w3.org/2000/svg" xmlns:xlink="http://www.w3.org/1999/xlink" x="0px" y="0px"
	 width="140.867px" height="100.006px" viewBox="0 0 140.867 100.006" enable-background="new 0 0 140.867 100.006"
	 xml:space="preserve">
<g id="Layer_6" display="none">
	<rect x="-97.297" y="-190.128" display="inline" stroke="#FFFFFF" stroke-miterlimit="10" width="727.928" height="377.478"/>
</g>
<g id="Layer_2">
	<circle fill="#FFFEFE" cx="50.491" cy="51.708" r="36.491"/>
</g>
<g id="Layer_1_1_">
	<g>
		<path fill="#8C7630" d="M45.44,56.535c0-8.702,3.281-16.158,9.844-22.37c6.563-6.211,14.451-9.317,23.664-9.317
			c8.992,0,16.738,3.13,23.238,9.388c6.5,6.259,9.75,13.691,9.75,22.299c0,9.112-3.211,16.813-9.631,23.104
			c-6.421,6.29-14.301,9.435-23.641,9.435c-9.213,0-17.054-3.168-23.522-9.506C48.674,73.229,45.44,65.552,45.44,56.535z
			 M103.181,56.913c0-6.652-2.398-12.254-7.194-16.809s-10.696-6.832-17.701-6.832c-6.658,0-12.361,2.317-17.109,6.951
			c-4.749,4.634-7.123,10.197-7.123,16.69c0,6.588,2.437,12.16,7.312,16.714c4.875,4.555,10.846,6.831,17.914,6.831
			c6.5,0,12.108-2.324,16.825-6.973C100.821,68.836,103.181,63.312,103.181,56.913z"/>
	</g>
</g>
<g id="Layer_3">
	<path d="M79.265,74.151l-26.77-58.879c-0.664-0.036-1.332-0.056-2.004-0.056c-0.686,0-1.366,0.021-2.043,0.058L21.835,74.301
		c1.919,2.431,4.142,4.611,6.611,6.485h0.04l7.733-17.244h28.597L72.61,80.73C75.099,78.83,77.338,76.618,79.265,74.151z
		 M60.041,55.872H41.233h-1.575l10.78-24.036l10.898,24.036H60.041z"/>
</g>
</svg>
